<svg width="15" height="15" viewBox="0 0 15 15" fill="none" xmlns="http://www.w3.org/2000/svg">
<path d="M14.4067 13.655L10.3947 9.64302C11.3588 8.48559 11.8396 7.00102 11.737 5.49815C11.6344 3.99528 10.9564 2.58982 9.84391 1.57413C8.73147 0.558451 7.27027 0.0107504 5.7643 0.0449691C4.25832 0.0791877 2.82351 0.692691 1.75834 1.75785C0.69318 2.82302 0.079676 4.25783 0.0454573 5.76381C0.0112387 7.26979 0.55894 8.73098 1.57462 9.84343C2.59031 10.9559 3.99577 11.6339 5.49864 11.7365C7.00151 11.8391 8.48608 11.3583 9.64351 10.3942L13.6555 14.4062L14.4067 13.655ZM1.12544 5.9062C1.12544 4.96056 1.40586 4.03616 1.93123 3.24988C2.4566 2.46361 3.20333 1.85079 4.07699 1.48891C4.95065 1.12702 5.912 1.03234 6.83947 1.21683C7.76694 1.40131 8.61888 1.85668 9.28755 2.52535C9.95622 3.19402 10.4116 4.04596 10.5961 4.97343C10.7806 5.9009 10.6859 6.86225 10.324 7.73591C9.96211 8.60957 9.34929 9.3563 8.56301 9.88167C7.77674 10.407 6.85233 10.6875 5.90669 10.6875C4.63906 10.686 3.42375 10.1819 2.52739 9.28551C1.63104 8.38915 1.12685 7.17384 1.12544 5.9062Z" fill="black"/>
</svg>
